<?xml version="1.0" encoding="utf-8"?>
<!-- Generator: Adobe Illustrator 19.0.0, SVG Export Plug-In . SVG Version: 6.00 Build 0)  -->
<svg version="1.1" id="Capa_1" xmlns="http://www.w3.org/2000/svg" xmlns:xlink="http://www.w3.org/1999/xlink" x="0px" y="0px"
	 viewBox="0 0 250 300" style="enable-background:new 0 0 250 300;" xml:space="preserve">
<style type="text/css">
	.st0{fill:#A0BF4D;}
</style>
<g id="XMLID_1_">
	<path id="XMLID_2_" class="st0" d="M136.6,217L136.6,217c-2.3,0-4.1,1.7-4.1,4c0,2.2,1.8,4,4.1,4h0c2.2,0,4.1-1.8,4.1-4
		S138.9,217,136.6,217z"/>
	<path id="XMLID_9_" class="st0" d="M225.5,217h-58.3c-0.9-8-6.5-14.9-14.3-17.2c-2.5-5.4-7.5-9.3-13.2-10.6
		c-1.9-8.6-9.7-15.1-18.7-15.1c-7,0-13.3,3.8-16.7,9.7c-6.6,0.2-12.7,3.8-16.2,9.3C86,187.3,80,183,74,182.6v-8.5
		c9-1.2,16.6-6.7,21.2-15c6-1.4,11.5-4.9,15.6-9.9c4.4-5.5,6.9-12.6,6.9-19.9c0-11.1-5.7-21.3-14.6-26.7
		c-1-18.5-15.2-33.2-32.6-33.2c-6.6,0-13.1,2.2-18.5,6.2c-1.4,1.1-1.8,3.1-0.7,4.5c1.1,1.4,3.1,1.8,4.5,0.7
		c4.3-3.2,9.4-4.9,14.6-4.9c14.4,0,26.1,12.8,26.2,28.6c0,1.2,0.7,2.3,1.8,2.9c7.7,3.9,12.8,12.5,12.8,21.8c0,11.8-8,22-18.6,23.8
		c-1.1,0.2-2,0.9-2.5,1.8c-3.3,6.8-9.1,11.4-16.1,12.7v-27.3l15.3-14c1.3-1.2,1.4-3.3,0.2-4.6c-1.2-1.3-3.3-1.4-4.7-0.2l-10.9,10
		v-20.4c0-1.8-1.7-3.3-3.5-3.3s-3.5,1.5-3.5,3.3v37.3l-10.5-10c-1.3-1.2-3.2-1.1-4.4,0.2c-1.2,1.3-1.4,3.4,0,4.6l15,14v10.6
		c-6-1-13.2-5.8-16.7-13c-0.4-0.9-1.1-1.6-2.1-1.8c-10.2-2.2-17.6-12.1-17.6-23.6c0-9,4.9-17.3,12.3-21.4c1-0.6,2-1.7,2-2.9
		c0-0.1,0-0.2,0-0.2c0,0,0-0.1,0-0.1c0-4,0.4-7.9,1.9-11.5c0.4-1.1,0.8-2.2,1.3-3.2c0.9-1.6,0.2-3.5-1.4-4.4
		c-1.6-0.9-3.6-0.3-4.4,1.3c-0.7,1.2-1.3,2.5-1.8,3.8c-1.6,4-2.5,8.2-2.7,12.5c-8.4,5.5-13.6,15.3-13.6,26.1
		c-0.1,13.9,8.5,26.1,20.9,29.5c4.7,8.8,12.9,14.4,21.9,15.4v9.2c-3,1.2-6.3,3.7-8.3,7c-7.9,0.4-14.1,6.2-15.3,13.9
		C38,206.8,34,212,32.2,217H35l0,0h-9.9c-2.2,0-4.1,1.8-4.1,4s1.8,4,4.1,4h98.1c2.2,0,4.1-1.8,4.1-4s-1.8-4-4.1-4h-16.8h0h3.7
		c0,0,0,0,0-0.1c0,0,0,0,0-0.1c0-0.4,0-0.8,0-1.1v0c0-0.4,0.1-0.7,0-1.1c0,0,0.1-0.1,0.1-0.1c-0.1-0.4-0.2-0.7-0.3-1.1
		c0,0,0-0.1,0-0.2c-0.1-0.3-0.3-0.7-0.4-1c0,0,0-0.1-0.1-0.2c-0.2-0.3-0.3-0.7-0.5-0.9c0,0,0-0.1-0.1-0.1c-0.2-0.3-0.4-0.6-0.6-0.9
		c0,0,0-0.1-0.1-0.1c-0.2-0.3-0.4-0.6-0.7-0.9l0,0c-0.2-0.3-0.5-0.6-0.8-0.9c-0.2-0.3-0.5-0.6-0.8-0.8c0,0,0,0-0.1-0.1
		c-0.3-0.2-0.6-0.5-0.9-0.7c0,0-0.1-0.1-0.1-0.1c-0.3-0.2-0.6-0.4-0.9-0.7c0,0-0.1-0.1-0.1-0.1c-0.3-0.2-0.6-0.4-0.9-0.6
		c0,0-0.1,0-0.2-0.1c-0.3-0.2-0.7-0.4-1-0.5c0,0-0.1,0-0.1-0.1c-0.3-0.2-0.7-0.3-1-0.5c0,0-0.1,0-0.1,0c-0.4-0.2-0.7-0.3-1.1-0.4
		c0,0,0-0.1,0-0.1c-0.1-0.2-0.3-0.5-0.4-0.8c-0.1-0.1-0.2-0.2-0.2-0.4c-0.1-0.2-0.2-0.3-0.3-0.4c-0.1-0.2-0.2-0.3-0.3-0.4
		c-0.1-0.1-0.2-0.2-0.2-0.4c-0.1-0.2-0.2-0.3-0.3-0.4c-0.1-0.1-0.1-0.2-0.2-0.2c-0.3-0.3-0.6-0.7-0.9-0.9c0,0-0.1-0.1-0.2-0.2
		c-0.2-0.2-0.3-0.3-0.4-0.4c-0.1-0.1-0.2-0.2-0.3-0.2c-0.2-0.1-0.3-0.2-0.4-0.4c-0.1-0.1-0.2-0.2-0.3-0.3s-0.3-0.2-0.4-0.3
		c-0.2-0.2-0.4-0.3-0.6-0.4c0,0-0.1-0.1-0.2-0.1c2.4-4,6.7-6.5,11.5-6.5c0.3,0,0.6,0,1,0c1.4,0.1,2.7-0.7,3.2-2
		c2-4.7,6.6-7.8,11.7-7.8c6.6,0,12.1,5.1,12.6,11.7c0.1,1.6,1.4,2.9,3,3c4.9,0.4,9.2,3.7,10.9,8.3c0.4,1.1,1.3,1.8,2.4,2
		c5.6,1.2,9.9,6.3,10.8,11.3h-9.6c-2.2,0-4.1,1.8-4.1,4s1.8,4,4.1,4h74.4c2.2,0,4.1-1.8,4.1-4S227.8,217,225.5,217z"/>
	<path id="XMLID_10_" class="st0" d="M146.5,182.3c4.9,9.2,12.5,15.1,23.5,16.1V217h6v-18.7c9-1.2,17.2-7,21.9-15.6
		c6.3-1.4,11.9-5.1,16.2-10.3c4.6-5.7,7.1-13.1,7.1-20.7c0-11.5-5.9-22.2-15.2-27.8c-1-19.3-15.8-34.6-33.9-34.6
		c-5.7,0-11.3,1.5-16.3,4.5c-1.5,0.9-2,2.9-1.1,4.4c0.9,1.5,2.9,2,4.4,1.1c4-2.3,8.4-3.6,13-3.6c15.1,0,27.4,13.5,27.5,30.1
		c0,1.2,0.7,2.3,1.8,2.9c8.1,4.1,13.4,13.1,13.4,22.9c0,12.4-8.4,23.1-19.5,25c-1.1,0.2-1.8,0.9-2.3,1.8
		c-3.5,7.2-9.8,12.1-16.8,13.4V163l15.9-14.7c1.3-1.2,1.3-3.3,0.1-4.6c-1.2-1.3-3.2-1.4-4.5-0.2L176,154.1v-21.6
		c0-1.8-1.2-3.3-3-3.3s-3,1.5-3,3.3v39.3l-11.9-10.6c-1.3-1.2-3.6-1.1-4.8,0.2c-1.2,1.3-0.9,3.4,0.5,4.6l16.2,14.7v11.2
		c-9-1-14.8-6-18.4-13.7c-0.4-0.9-1.4-1.6-2.4-1.8c-10.8-2.3-18.7-12.7-18.7-24.8c0-9.5,4.5-18.1,12.2-22.5c1-0.6,1.3-1.7,1.3-2.9
		c0-0.1,0-0.2,0-0.3c0,0,0-0.1,0-0.2c0-6.8,2.3-13.2,6.1-18.5c1-1.5,0.8-3.5-0.6-4.5s-3.4-0.7-4.4,0.8c-4.3,6.1-6.6,13.2-6.9,20.9
		c-8.8,5.7-14,16-14,27.1C124.1,166.1,133.5,178.8,146.5,182.3z"/>
</g>
</svg>
