<?xml version="1.0" encoding="utf-8"?>
<!-- Generator: Adobe Illustrator 19.0.0, SVG Export Plug-In . SVG Version: 6.00 Build 0)  -->
<svg version="1.1" id="Capa_1" xmlns="http://www.w3.org/2000/svg" xmlns:xlink="http://www.w3.org/1999/xlink" x="0px" y="0px"
	 viewBox="0 0 250 300" style="enable-background:new 0 0 250 300;" xml:space="preserve">
<g id="XMLID_9_">
	<path id="XMLID_7_" class="st0" d="M215.5,140.5c0-3-2.4-5.4-5.4-5.4c-3,0-5.4,2.4-5.4,5.4c0,17.8-14.4,32.2-32.2,32.2
		c-3,0-5.4,2.4-5.4,5.4s2.4,5.4,5.4,5.4C196.2,183.5,215.5,164.2,215.5,140.5z"/>
	<path id="XMLID_15_" class="st0" d="M103.6,192.9c-2.8,4.3-27.8,42.3-27.8,58.3c0,18.4,14.8,33.8,32.2,33.8s32.2-15.5,32.2-33.8
		c0-16-24.9-54-27.8-58.3c-1-1.5-2.7-2.4-4.4-2.4C106.3,190.5,104.5,191.3,103.6,192.9z M129.5,251.2c0,12.3-10.1,23.1-21.5,23.1
		s-21.5-10.8-21.5-23.1c0-8.3,11.8-29.9,21.5-45.4C117.7,221.3,129.5,242.9,129.5,251.2z"/>
	<path id="XMLID_12_" class="st0" d="M48.9,99.2c-1.7,0-3.4,0.8-4.4,2.3c-3.4,4.9-33.2,48.6-33.2,67.5c0,20.8,16.9,37.6,37.6,37.6
		c20.8,0,37.6-16.9,37.6-37.6c0-19-29.8-62.6-33.2-67.5C52.4,100,50.7,99.2,48.9,99.2z M48.9,195.9c-14.8,0-26.9-12.1-26.9-26.9
		c0-10.4,15-36.7,26.9-54.9c11.9,18.1,26.9,44.4,26.9,54.9C75.8,183.8,63.8,195.9,48.9,195.9z"/>
	<path id="XMLID_2_" class="st0" d="M118.8,135.1c0,3-2.4,5.4-5.4,5.4c-3,0-5.4-2.4-5.4-5.4c0-3,2.4-5.4,5.4-5.4
		C116.4,129.8,118.8,132.2,118.8,135.1z"/>
	<path id="XMLID_1_" class="st0" d="M177,12.4c-1-1.5-2.7-2.4-4.5-2.4s-3.5,1-4.5,2.4c-1.5,2.4-38,59.8-53.3,100.2
		c-1,2.8,0.4,5.9,3.2,6.9s5.9-0.4,6.9-3.2c11.7-31.1,37.4-74.1,47.8-91c18.4,29.7,53.7,91.7,53.7,115.1c0,29.7-24.1,53.7-53.7,53.7
		c-24,0-45.3-16.1-51.7-39.2c-0.8-2.8-3.7-4.5-6.6-3.7c-2.8,0.8-4.5,3.7-3.7,6.6c7.8,27.7,33.3,47,62.1,47
		c35.5,0,64.5-28.9,64.5-64.5C236.9,110.9,192.3,36.4,177,12.4z"/>
</g>
</svg>
