<?xml version="1.0" encoding="utf-8"?>
<!-- Generator: Adobe Illustrator 19.0.0, SVG Export Plug-In . SVG Version: 6.00 Build 0)  -->
<svg version="1.1" id="Capa_1" xmlns="http://www.w3.org/2000/svg" xmlns:xlink="http://www.w3.org/1999/xlink" x="0px" y="0px"
	 viewBox="0 0 250 300" style="enable-background:new 0 0 250 300;" xml:space="preserve">
<style type="text/css">
	.st0{fill:#49AA42;}
</style>
<path id="XMLID_23_" class="st0" d="M201.1,116.1c3.7,11.5,1.6,22.8-1.1,34c-3,12.6-6.5,25-9.5,37.6c-1.1,4.7-1.5,9.6-2.2,14.4
	c-0.1,0.6-0.2,1.2-0.4,1.8c-1.5,5.9-2.5,6.7-8.5,6.7c-4,0-8,0-12,0c-3.6,0-5.8-2.9-3.6-5.8c3.5-4.6,1.3-9,0.5-13.4
	c-0.2-1.1-1-2.2-1.6-3.1c-2.1-3.2-4.1-6.4-6.3-9.4c-0.6-0.8-1.8-1.7-2.6-1.6c-0.8,0.1-1.9,1.2-2.2,2.1c-0.7,2-1.8,3.5-3.9,3.8
	c-2.1,0.4-3.7-0.6-5-2.3c-1.8-2.2-3.4-2.1-4.8,0.2c-2,3.4-6.4,3.6-8.5,0.3c-1-1.6-2.2-2-3.9-2.3c-5-0.9-9.9-2-14.9-3.2
	c-2.9-0.7-3.9-0.3-4.4,2.6c-1.2,7-2.1,14.1-3.4,21.1c-0.5,2.8-1.4,5.7-2.3,8.5c-0.6,1.8-2.1,2.6-4.1,2.6c-4.5,0-9.1,0-13.6,0
	c-2.3,0-3.4-1-3.3-3.3c0.1-1.6,1-3.1,1.4-4.7c0.3-1.1,0.8-2.3,0.7-3.3c-0.6-4-1.3-8.1-2-12c-0.2-1-0.7-2-1.2-2.9
	c-5.9-9.3-11.8-18.6-17.6-27.9c-3.8-6.2-7.4-12.5-11.3-18.7c-2.6-4-5.9-7.6-10.9-8.5c-2.7-0.5-5.6-0.5-8.4-0.4
	c-3.9,0.2-7.7,0.2-11.4-1.4c-7.9-3.4-9.5-12.2-3.2-18.1c3.7-3.4,7.7-6.6,11.4-10.1c3.1-3,6.1-6.1,9-9.3c4-4.5,9-6.3,14.9-5.7
	c1.6,0.2,2.9-0.2,4.3-1c1.5-0.9,3.1-1.6,4.8-2c5-1.2,9.3,1.8,9.7,7.1c0.1,1.5,0,3.1-0.1,4.6c-0.1,1.6,0.4,2.7,2,3
	c15.5,3,32,1.4,47.8,1.3c16.6-0.1,33.3,0.2,49.9,0.7c4.8,0.2,9.9-0.2,14.5,1.5c3.3,1.2,6.5,2.9,9.5,4.8c0.5,0.3,1,0.7,1.5,1
	c9,4.7,13.7,12.4,14.9,22.2c0.8,6.5,0.7,13.2,0.8,19.8c0,1.6,0.4,2.9,1.3,4.2c3.1,4.3,3.6,9.1,1.9,14.1c-0.8,2.2-2.2,4-4.5,4.8
	c-2.4,0.9-4.2,0.1-5.1-2.3c-0.8-2-1.6-3.9-2.2-6c-0.3-1.2-0.4-2.8,0-3.9c1-2.4,2.1-4.9,3.6-7.1c0.9-1.3,1.4-2.4,1.4-4
	c0.1-7.2,0.4-14.4-1.2-21.5C204.5,121.6,203,118.3,201.1,116.1z M181.9,102.5c-1.5,1.8-2.6,3.7-4.2,4.9c-5.6,4.3-11.7,7.4-19.2,6.1
	c-3.2-0.6-6.2,0-8.8,2.6c-5.7,5.9-12.3,6.4-18.8,1.4c-5.6-4.2-9.6-9.6-11.1-16.9c-12.3,0-24.7,0-37.3,0c1.9,4.9,1.7,9.5,0.1,14
	c-0.6,1.8-0.3,3.2,1,4.6c1.5,1.7,3.1,3.3,4.4,5.2c2.8,4.3,2,9.1-1.9,12.4c-3.4,2.8-7.4,3.8-11.8,3.1c-5-0.8-8.6-4-11.7-7.8
	c-3.4-4.2-7.8-7.3-13.1-8.7c-3.8-1-7.5-0.9-11,1.7c0.5,0.2,0.7,0.4,1,0.4c4.1,1,7.5,3.2,10.1,6.4c1.8,2.2,3.6,4.5,5.1,6.9
	c8.7,14.1,17.4,28.3,26,42.5c0.9,1.5,2,3,2.3,4.6c1,5,1.9,10.1,2.6,15.2c0.1,0.8-0.5,1.8-0.9,2.6c-0.5,0.9-1.2,1.7-2,2.9
	c1.5,0,2.3,0,3,0c0.4-1,0.6-2.3,1.3-2.8c2.6-2,1.8-4.6,1.3-7.1c-0.1-0.5-0.2-1-0.3-1.6c-0.6-7-3.2-13.1-7.4-18.8
	c-3.7-5-6.4-10.9-9.5-16.4c-0.7-1.2-1-2.5,0.7-3.2c1.5-0.6,2.1,0.6,2.6,1.7c1.4,2.9,2.6,5.9,4.3,8.6c2.8,4.6,6.1,8.9,9,13.5
	c1,1.5,1.9,3.2,2.2,4.8c1.1,5.3,2,10.6,2.8,15.9c0.1,0.8-0.6,1.9-1.1,2.7c-0.5,0.8-1.3,1.5-2,2.2c1.6,0.5,2.9,0.5,4.2,0.5
	c3.7,0,3.8,0,4.6-3.6c0.7-3.1,0.8-6.4,1.4-9.5c2.2-11.3,4.5-22.6,6.8-33.9c0.2-1.2,0.8-2,2.2-1.8c1.3,0.2,1.5,1.2,1.4,2.3
	c-0.2,1.6-0.5,3.3-0.8,5c2.1-1,4-2.2,6.1-2.9c10.1-3.8,20.4-4.6,30.9-2.4c6,1.2,11.6,3.6,15.6,8.4c4,4.8,7.8,10,11.4,15.2
	c1.3,1.9,2.2,4.2,2.7,6.4c1,3.8,1.6,7.8,2.4,11.7c0.2,1.3-0.1,2.2-1.2,2.9c-0.7,0.4-1.2,1.2-2,2.2c1.1,0.1,1.5,0.2,2,0.2
	c6.3,0.1,7-0.3,7.6-6.7c0.8-9.3,3.3-18.2,5.5-27.2c2.7-10.9,5.3-21.9,8-32.8c0.3-1.2-0.2-2-0.9-3c-1.9-2.6-4-5.3-5-8.3
	c-2-5.7-2.2-11.4,3-15.9C193.3,108.3,187.2,103.7,181.9,102.5z M161.1,173.1c-2.6,1.4-2.8,1.6-1.4,4.1c1.6,3,3.7,5.7,5.6,8.5
	c0.7,1,1.8,2,2,3.2c1,4.3,1.8,8.6,2.4,12.9c0.1,0.8-0.7,1.8-1.2,2.6c-0.5,0.8-1.2,1.4-1.8,2c0.1,0.2,0.2,0.4,0.3,0.5
	c0.7,0,1.4,0,2.2,0c1.6,0.2,3,0,3.3-2.1c0.1-0.8,1-1.4,1.4-2.2c0.3-0.6,0.8-1.4,0.7-2C173.7,189.8,168.6,180.9,161.1,173.1z
	 M21.7,124.6c2.6-4,1.5-11.7-2.1-14.3c-1.5,1.6-3.4,2.8-3.9,5.2c1.6,0.3,3.8-0.6,4.1,1.5c0.5,3.2-2.8,1.6-4.1,2.5
	C16.6,122.4,18.6,124,21.7,124.6z M56.9,96.5c2-1.4,4-2.6,5.8-4c0.3-0.2,0.2-1.4-0.1-1.8c-0.4-0.4-1.4-0.9-1.8-0.7
	c-1.8,1-3.6,2-5.2,3.3c-0.4,0.3-0.4,1.4-0.3,2C55.5,95.7,56.3,96,56.9,96.5z M40.8,99.2c0-0.3,0-0.6,0-0.9c-0.7-0.5-1.4-1.2-2.2-1.4
	c-1.2-0.2-2.1,0.8-1.8,2c0.2,0.8,1.2,1.8,1.8,1.8C39.2,100.8,40,99.8,40.8,99.2z"/>
<path id="XMLID_6_" class="st0" d="M153,129c6.5,0.1,12.7,1.7,18.7,3.8c6,2.2,8.7,9.7,6.3,16.6c-2.3,6.7-8.6,9.8-15,6.9
	c-7.3-3.3-14.4-7-21.3-11c-6.3-3.6-6.2-9.1-0.2-13.3C144.9,129.6,148.9,128.9,153,129z"/>
<path id="XMLID_5_" class="st0" d="M119.8,136.3c-0.5,5.8-4.2,8.7-9.5,6.9c-2.4-0.8-4.6-2.3-6.5-4c-2-1.8-2.4-4.4-1.3-7
	c1.2-2.6,3.3-4.2,6.3-4.2c3.3,0,6.4,1,8.6,3.5C118.5,132.8,119,134.7,119.8,136.3z"/>
<path id="XMLID_4_" class="st0" d="M88.4,175.9c-2.5,3.9-5.2,1.5-6.9-4.2c-1.6-1.6-3.8-5.1-4.7-7.1c-1-2.1-0.4-4.1,1.5-5.5
	c1.9-1.4,4.2-1.6,6.6-0.4c2.7,1.4,2.4,10,3.2,12.7C88.7,172.9,88.4,174.5,88.4,175.9z"/>
<g id="XMLID_14_">
	<g id="XMLID_17_">
		<g id="XMLID_18_">
			<path id="XMLID_3_" class="st0" d="M126.3,209.8L126.3,209.8c-2.2,0-4,1.8-4,4s1.8,4,4,4h0c2.2,0,4-1.8,4-4
				S128.5,209.8,126.3,209.8z"/>
		</g>
	</g>
	<path id="XMLID_2_" class="st0" d="M112,217.8H38.8c-2.2,0-4-1.8-4-4l0,0c0-2.2,1.8-4,4-4H112c2.2,0,4,1.8,4,4l0,0
		C116,216,114.2,217.8,112,217.8z"/>
	<path id="XMLID_1_" class="st0" d="M236,217.8h-96.5c-2.2,0-4-1.8-4-4l0,0c0-2.2,1.8-4,4-4H236c2.2,0,4,1.8,4,4l0,0
		C240,216,238.2,217.8,236,217.8z"/>
</g>
</svg>
