<svg xmlns="http://www.w3.org/2000/svg" viewBox="0 0 560.75 556.67"><defs><style>.cls-1{fill:#fff;}</style></defs><title>ICONOS HOME</title><g id="ICONOS"><g id="AGUAS"><path class="cls-1" d="M277.8,345.21a60.19,60.19,0,0,0,6.15.22,67.9,67.9,0,0,0,46.73-18.21c12.34-11.54,19-27.53,20-44.26,1-16.52-3.14-33.11-8.77-48.52S329,204.48,321.54,190c-9.31-18-19.25-35.67-30-52.86-1.36-2.17-2.74-4.34-4.12-6.5-.08-.12-.17-.22-.25-.33l-.18-.22-.1-.11a3.42,3.42,0,0,0-.95-.78l-.25-.11h0a3.5,3.5,0,0,0-.55-.22,3.64,3.64,0,0,0-3.17.33c-.07,0-.13.11-.2.15a4.5,4.5,0,0,0-1.28,1.29q-16.62,25.95-31,53.29c-7.67,14.58-15.18,29.29-21.27,44.62s-10.89,31.81-11.14,48.51,4.8,33,15.83,45.71C244.21,335.75,260.76,343.72,277.8,345.21ZM292.31,337h0C291.93,337,292.16,337,292.31,337Zm15.21-4.13ZM237.91,226Zm-7.48,78.42c-.18-.39-.36-.78-.53-1.18l-.21-.47c0-.07-.11-.29-.17-.44a61.07,61.07,0,0,1-3.2-10.82c-.18-.89-.34-1.79-.48-2.68l-.15-1c-.05-.39-.1-.78-.14-1.18q-.31-2.91-.4-5.84a88.47,88.47,0,0,1,.43-11.51q.15-1.41.33-2.82h0v-.05c0-.25.07-.5.11-.75.08-.56.17-1.13.26-1.69.32-2,.69-3.9,1.11-5.84a164.39,164.39,0,0,1,7-23.37c.72-1.9,1.46-3.8,2.22-5.68.37-.91.75-1.81,1.12-2.72l.12-.26c0-.13.11-.27.17-.4l.69-1.61q2.39-5.49,5-10.87c3.24-6.8,6.67-13.5,10.14-20.18q13.75-26.58,29.57-52l.55-.88q14.3,22.78,26.85,46.59c3.71,7,7.36,14.1,10.87,21.23q2.61,5.28,5.06,10.63,1.25,2.73,2.45,5.49l.62,1.43.3.72c-.07-.16-.25-.62,0,.12.41,1,.81,1.93,1.2,2.9a186.87,186.87,0,0,1,7.82,23.22c1,3.85,1.84,7.75,2.48,11.68.07.43.14.87.2,1.31,0,.11.12.79.15,1,.12.94.23,1.88.32,2.83q.31,3,.42,6a78.76,78.76,0,0,1-.38,11.39c0,.4-.09.8-.14,1.2,0,.07-.09.64-.12.81-.15,1-.32,1.91-.51,2.86-.36,1.84-.81,3.67-1.34,5.47s-1.21,3.71-1.93,5.52l-.06.15c-.05.13-.15.37-.18.42-.17.4-.35.79-.53,1.18-.44,1-.91,1.91-1.41,2.84a58.55,58.55,0,0,1-3,5.05c-.53.81-1.09,1.6-1.67,2.38l-.28.38-.15.19c-.35.45-.72.9-1.09,1.34a61.42,61.42,0,0,1-8.7,8.44L321,325l-.3.23-1.24.91c-.84.59-1.7,1.17-2.56,1.72-1.69,1.08-3.42,2.07-5.19,3-.86.44-1.73.86-2.61,1.27l-1.39.62-.85.34c-1.86.73-3.74,1.38-5.66,1.94s-4,1.06-6,1.44c-.94.18-1.87.34-2.82.47l-.69.08c-.58.07-1.15.12-1.73.17-2,.17-4,.23-6,.21a60.19,60.19,0,0,1-6.15-.22l-1.34-.14-.82-.09c-1-.15-2.05-.32-3.08-.51a64.66,64.66,0,0,1-11.47-3.35l-.81-.33-1.26-.55c-.94-.43-1.86-.88-2.78-1.35-1.83-.95-3.62-2-5.35-3.09-.76-.49-1.5-1-2.24-1.51-.42-.3-.84-.6-1.25-.91l-.46-.34-.41-.33c-1.56-1.24-3.05-2.56-4.48-3.94a58.12,58.12,0,0,1-4.07-4.38c-.33-.39-.66-.79-1-1.19a3,3,0,0,0-.22-.28c-.05-.08-.18-.25-.21-.29-.61-.83-1.21-1.67-1.78-2.53a56.1,56.1,0,0,1-3.11-5.22C231.24,306.06,230.83,305.23,230.43,304.38Z"/><path class="cls-1" d="M436.88,344.33a49.34,49.34,0,0,0-8.31-23.87c-11.78-17.78-31.36-29.12-50.63-37.08-5.62-2.32-11.36-4.34-17.16-6.14a4,4,0,0,0-2.13,7.72A170.38,170.38,0,0,1,391,298.39c8.81,4.86,16.36,10.06,23.3,17.11,1.58,1.61,3.09,3.28,4.51,5l.62.77.75,1c.66.9,1.3,1.83,1.9,2.77a51.08,51.08,0,0,1,3,5.24c.2.4.4.81.58,1.22.1.2.18.41.28.61l0,.1v0c.37.92.72,1.84,1,2.79a41.7,41.7,0,0,1,1.44,5.51c.09.48.17,1,.25,1.44,0,0,0,.1,0,.18s.06.51.07.53c.1,1,.17,1.94.2,2.91a41.53,41.53,0,0,1-.15,5c0,.41-.09.82-.13,1.22.09-.91,0-.14-.05.29-.13.8-.28,1.61-.46,2.41a43.55,43.55,0,0,1-1.35,4.75c-.24.7-.52,1.39-.78,2.08l0,.05-.18.42c-.17.38-.35.77-.53,1.15a54.68,54.68,0,0,1-5.36,8.86l-.59.77c-.18.24-.37.48-.56.71-.59.72-1.19,1.44-1.81,2.14-1.27,1.44-2.61,2.83-4,4.17s-2.84,2.66-4.33,3.91q-1.11.94-2.25,1.86l-.75.58-1.23.92a131.77,131.77,0,0,1-23.27,13.52c-4.49,2.07-8.46,3.68-13.36,5.44s-9.94,3.36-15,4.76a268,268,0,0,1-69.7,9.36,273.51,273.51,0,0,1-70.64-8.16C193.39,407,175.51,400.2,159.25,389c-.79-.54-1.58-1.09-2.35-1.66l-1.28-.95-.56-.42-.06,0-.24-.19c-1.56-1.24-3.09-2.51-4.58-3.84a75.55,75.55,0,0,1-7.82-8.08q-.45-.54-.87-1.08a3.65,3.65,0,0,1-.24-.31l-.16-.21c-.54-.72-1.07-1.45-1.58-2.19-1-1.42-1.86-2.87-2.68-4.36s-1.41-2.74-2-4.14c-.07-.18-.27-.65-.33-.8-.13-.34-.26-.69-.38-1q-.45-1.23-.81-2.49a41.4,41.4,0,0,1-1.08-4.66c0-.31-.09-.62-.14-.93v0L132,351c-.09-.81-.15-1.63-.18-2.45a40.29,40.29,0,0,1,.13-5.27l.12-1.08c0-.11.09-.6.12-.82.16-.93.35-1.86.57-2.78a43.33,43.33,0,0,1,1.71-5.47c.07-.19.28-.7.32-.8l.41-.93c.44-.94.9-1.88,1.4-2.79a53.93,53.93,0,0,1,3.09-5c.26-.38.53-.76.8-1.13s.35-.47.52-.7c0,0,.14-.2.23-.31l.77-1c.38-.46.76-.92,1.15-1.37a79.13,79.13,0,0,1,9.44-9.23c2-1.63,3-2.43,5.12-3.94s4.07-2.8,6.16-4.1a153,153,0,0,1,29.58-14c5.58-2,11.24-3.72,17-5.25,5-1.33,2.86-9.05-2.13-7.71-22.06,5.89-44.19,14.88-61.8,29.76-12.93,10.92-23.4,26.4-22.67,44,.63,15.2,9.22,28.52,20.21,38.52,14.22,12.94,32.07,21.5,50.12,27.65,22.63,7.7,46.56,11.6,70.39,12.84a293.64,293.64,0,0,0,75.7-5.66c20.53-4.34,41-11.16,59.07-22,13.59-8.17,26.95-19.33,33.47-34.16A45.82,45.82,0,0,0,436.88,344.33Z"/><path class="cls-1" d="M183.72,341.44c.1-.12.05-.18,0,0Z"/><path class="cls-1" d="M180.53,328.25a28.51,28.51,0,0,0-5,15.51,27.74,27.74,0,0,0,3,12.31c4.17,8.61,12.24,15.06,20.3,19.85,10.72,6.37,22.78,10.56,34.86,13.5a212.64,212.64,0,0,0,45.29,5.7,225.63,225.63,0,0,0,46.91-3.72,148.14,148.14,0,0,0,37.6-12c9.14-4.47,17.94-10.41,24-18.73,5.34-7.32,7.39-16.84,4.26-25.51-4.37-12.11-15.65-20.38-26.7-26-3.57-1.82-7.25-3.42-11-4.88-2-.77-4.48.84-4.92,2.79A4.11,4.11,0,0,0,352,312a100.2,100.2,0,0,1,9.62,4.36,80.8,80.8,0,0,1,8.54,5.09c.65.44,1.3.9,1.93,1.38l.5.37.8.63q1.71,1.4,3.3,2.92c1,1,2,2,2.86,3,.2.23.4.47.59.71l.18.22c.39.54.79,1.08,1.16,1.64a31.09,31.09,0,0,1,1.81,3.11c.15.3.28.59.42.89a.77.77,0,0,1,.07.16c.2.52.41,1,.58,1.58a26.7,26.7,0,0,1,.82,3.4v0c0,.26.05.52.07.78,0,.61.06,1.21.06,1.82,0,.41,0,.82,0,1.22,0,.21,0,.41-.05.61a.25.25,0,0,1,0,.09l0-.14c0,.07,0,.14-.05.21,0,.27-.06.37-.06.31-.13.66-.23,1.33-.4,2a23.09,23.09,0,0,1-.82,2.56v0s0-.06.06-.1c-.11.18-.17.4-.26.58-.19.43-.39.84-.61,1.25-.44.85-.92,1.67-1.43,2.47-.25.38-.5.75-.76,1.12l-.47.64,0,.05a55.67,55.67,0,0,1-4.17,4.51q-1.23,1.15-2.52,2.22l-.62.51-.48.38a3.54,3.54,0,0,0-.31.23l-.78.57a73.91,73.91,0,0,1-6.28,4.06c-2.29,1.33-4.64,2.55-7,3.67-.64.3-1.28.6-1.92.88l-.9.4-.69.3L354,375l-1.1.44-2.07.81a150.72,150.72,0,0,1-18,5.51q-5,1.2-10,2.12c-1.74.32-3.48.61-5.22.89l-2.46.36-1.1.16-.94.12a223.76,223.76,0,0,1-22.55,1.71c-7.67.2-15.36,0-23-.54q-5.56-.4-11.1-1.09l-1.25-.16-.3,0-.29,0-2.67-.39q-2.62-.41-5.24-.87a174.33,174.33,0,0,1-19.53-4.65c-2.9-.88-5.78-1.84-8.62-2.91-1.38-.52-2.76-1.06-4.12-1.63l-.12,0-.16-.07-.91-.4-2.08-.94a83.74,83.74,0,0,1-13.41-7.7l-1.33-1-.12-.09,0,0-.73-.59c-.87-.71-1.72-1.44-2.55-2.21a45.65,45.65,0,0,1-4.26-4.53l-.12-.16-.31-.4c-.29-.4-.57-.8-.84-1.21q-.79-1.2-1.47-2.46c-.2-.38-.39-.76-.58-1.15l-.28-.61c-.31-.84-.61-1.68-.85-2.54s-.38-1.62-.53-2.44c0-.18,0-.35-.05-.52,0-.44-.06-.88-.07-1.32s0-1.07,0-1.6c0-.26,0-.53.06-.8s0-.27,0-.4a.65.65,0,0,1,0-.17l0,0c0-.13.05-.26.07-.39s.1-.53.16-.79c.13-.62.29-1.23.48-1.84s.34-1,.53-1.55c.06-.14.41-.95.17-.42s.23-.5.31-.67a29.77,29.77,0,0,1,1.85-3.26q.49-.75,1-1.47l.2-.28.59-.73c.89-1.06,1.84-2.08,2.83-3.05s2.14-2,3.27-2.94l.82-.67.17-.13.15-.11c.68-.51,1.37-1,2.06-1.5a80.71,80.71,0,0,1,8.51-5.13q2.33-1.21,4.7-2.3c1.86-.86,2.91-1.3,4.7-2,1.94-.78,3.51-2.71,2.79-4.93-.6-1.87-2.83-3.62-4.92-2.79C201.48,309.55,188.29,316.59,180.53,328.25Z"/><path class="cls-1" d="M285.07,324a45.28,45.28,0,0,0,26-8.21,46.25,46.25,0,0,0,16.61-21.66,45.11,45.11,0,0,0,2.71-15.44,4,4,0,1,0-8,0q0,1.57-.12,3.15c0,.52-.09,1-.14,1.55,0,0,0,.16,0,.27l-.1.7a40.71,40.71,0,0,1-1.48,6.07c-.29.9-.66,1.77-1,2.66l0,.05,0,.07-.27.6c-.23.5-.47,1-.71,1.49a42.36,42.36,0,0,1-3.14,5.21l-.72,1c-.08.09-.42.53-.55.68-.69.84-1.42,1.65-2.18,2.43s-1.31,1.31-2,1.93c-.36.33-.73.66-1.11,1l-.5.42-.39.31a45.36,45.36,0,0,1-4.77,3.11c-.86.48-1.75.93-2.64,1.35l-.61.28-.57.24-.15.06-.94.36a41.3,41.3,0,0,1-6.64,1.82l-1.57.25h-.08l-1,.11c-1.27.12-2.55.17-3.83.18a4,4,0,1,0,0,8Zm5-8.31c.4-.06.19,0,0,0Z"/></g></g></svg>