<svg xmlns="http://www.w3.org/2000/svg" viewBox="0 0 560.75 556.67"><defs><style>.cls-1{fill:#fff;}</style></defs><title>ICONOS HOME</title><g id="ICONOS"><g id="INFRAESTRUCTURA"><path class="cls-1" d="M419.33,220.35a4.71,4.71,0,0,0-.12-.85,3.73,3.73,0,0,0-.21-.67s0,0,0-.06a.05.05,0,0,1,0,0,4.42,4.42,0,0,0-.34-.6,4,4,0,0,0-2-1.56l-.18-.08c-25.46-8.77-50.79-17.88-76.1-27.07s-50.76-18.49-76.2-27.57q-21.78-7.75-43.64-15.28a3.38,3.38,0,0,0-1.58-.12,3.33,3.33,0,0,0-1.5.52l-25,11.26-39.84,18-9.15,4.12a3.92,3.92,0,0,0-2,3.45v35.77a4.05,4.05,0,0,0,4,4h35.84V394.78a22.45,22.45,0,0,0-9.54,3.84c-5.37,3.88-9.06,9.44-11.63,15.47a87.2,87.2,0,0,0-6.45,29.31l0,.53a4.06,4.06,0,0,0,4,4H374.41c2.95,0,5.9.05,8.84,0h.37a4,4,0,0,0,4-4,88.41,88.41,0,0,0-4.53-24.81c-2.12-6.27-5.09-12.48-9.76-17.27A24.27,24.27,0,0,0,356,394.4c-7.11,0-14.23,0-21.34,0H295.45c-8.15,0-16.31-.14-24.46,0H257.54V210.07c0-1.13,0-2.27,0-3.41-.06-1.93-1.44-3.62-2.41-5.22l-16.44-27q-5.06-8.3-10.1-16.59,33.51,11.61,66.82,23.76c25.31,9.17,50.59,18.43,75.93,27.5q9.84,3.53,19.71,7-13.87-.1-27.76-.15-26.39-.07-52.77.11-12.74.09-25.47.25c-3,0-6.05-.05-9.07,0h-.22a4,4,0,0,0,0,8h95.45a59,59,0,0,0,.06,7.28c.51,7.13,2.19,15,7.5,20.19a17.67,17.67,0,0,0,9,4.63V267.1c0,2,1.83,4.2,4,4a8,8,0,0,1,.85,0c.32,0,.64,0,1,0l.36,0a22.82,22.82,0,0,1,3,.81h0l.05,0c.27.14.55.27.82.42a13.7,13.7,0,0,1,1.15.78c0-.06.12,0,.32.16l.12.1.11.06-.09-.05.3.27c.26.24.52.49.77.76.05.06.29.27.48.48a2.58,2.58,0,0,0,.16.25c.12.18.25.36.37.55.5.75.85,1.56,1.28,2.35.08.23.17.45.25.68.19.53.35,1.07.5,1.62s.29,1.17.4,1.77c.06.31.11.63.17.94l0,.11c.14,1.39.25,2.78.26,4.19a37.75,37.75,0,0,1-.19,4.12c0,.07,0,.19,0,.29l-.12.71c-.11.59-.24,1.17-.39,1.75s-.3,1.08-.49,1.61l-.24.66c-.45.8-.81,1.62-1.31,2.38l-.35.51c-.25.27-.48.56-.73.82s-.53.54-.81.79l-.32.27h.05l-.06,0-.13.12c-.5.43-.2.07,0-.08-.25.13-.64.49-.8.59s-.58.36-.88.53-.59.31-.9.45l-.15.07h0a21.86,21.86,0,0,1-3.54,1l-.19,0,.29,0c-.24,0-.47.05-.71.08-.43,0-.86.07-1.3.08s-1.09,0-1.63,0H389l-.72,0-.2,0c-.51-.11-1-.21-1.51-.35l-.95-.32h0c-.6-.33-1.18-.65-1.75-1a.76.76,0,0,0,.08.11.71.71,0,0,0-.18-.16l0,0a1.19,1.19,0,0,1-.19-.17l-.09-.06c-.32-.28-.62-.58-.91-.89l-.41-.46c-.21-.23-.27-.26-.26-.22-.21-.32-.41-.75-.52-.94a13.09,13.09,0,0,1-.68-1.28,1.75,1.75,0,0,0-.19-.33c-.09-.27-.17-.59-.2-.67a25.93,25.93,0,0,1-.92-3.82v0c0-.44-.09-.88-.12-1.32-.07-.89-.1-1.79-.1-2.69a4,4,0,1,0-8,0c0,5.34.95,11.08,4.18,15.48a17.39,17.39,0,0,0,9.05,6.5,21.52,21.52,0,0,0,8.42.64c7.46-.82,14.2-4.76,17.29-11.85a33.18,33.18,0,0,0,2.11-17.16c-.63-5.15-2.23-10.1-5.75-14a19.11,19.11,0,0,0-10.63-5.78v-6.82a18.09,18.09,0,0,0,8.1-3.82,21.77,21.77,0,0,0,6.09-9.19c2.27-5.91,2.69-12.64,2.41-18.92a.62.62,0,0,1,0-.13l2.73,0h.22a3.81,3.81,0,0,0,2.2-.69l.05,0a3.94,3.94,0,0,0,.45-.36A3.73,3.73,0,0,0,419.33,220.35Zm-268.95-4.82h-1V186.32l23-10.37,36.85-16.6-4.56,7.48q-9.1,15-18.23,30c-1.5,2.47-3.06,4.91-4.51,7.41a6.65,6.65,0,0,0-.73,3.69v7.64Zm99.16,159.26v15.8c0,1.26,0,2.54,0,3.81H189.25V367.24q10.58-5.49,21.14-11l36.81-19.13,2.34-1.22v38.89Zm-60.29-41.35V293.07l21,13.4,33.55,21.39,1.73,1.11-17.16,8.92L191.59,357l-2.34,1.22Zm60.29-73.6V322l-15.12-9.64L200.87,291l-4.21-2.69,13.72-7.39,36.8-19.81Zm-21.13,2.3L191.61,282l-2.36,1.27V215.48l20.93,13.82,33.65,22.22,1.93,1.27ZM270.23,402.4h84.83a29.47,29.47,0,0,1,3,.1h0s.07,0,.19,0l.29.05h.09l-.05,0c.26.05.53.09.79.15a19.17,19.17,0,0,1,2.35.69l.34.12.69.33a18.92,18.92,0,0,1,2,1.18c.27.17.52.36.79.54l.06.05.06.05c.6.51,1.19,1,1.75,1.59s.91.94,1.33,1.43l.65.78.36.49a38.49,38.49,0,0,1,2.38,3.81c.19.35,1.68,3.71,1.95,4.09-.09-.16-.28-.76-.1-.29,0,.11.09.21.13.31h0l.13.33c.13.32.26.65.38,1,.28.75.55,1.51.8,2.27.48,1.42.91,2.87,1.3,4.32.72,2.69,1.3,5.42,1.77,8.16.1.61.2,1.22.29,1.84l.12.79s0,.08,0,.13v-.1c.07,1,.25,2,.35,3l0,.33H166.82c-1.64,0-3.27,0-4.91,0,0-.12,0-.24,0-.36,0-.45.09-.9.14-1.35,0-.25.07-.51.1-.77l.05-.42,0-.33c0-.29.08-.58.13-.87.09-.65.2-1.29.31-1.93.23-1.33.48-2.65.76-4a77.81,77.81,0,0,1,2.36-8.65c.22-.65.45-1.3.69-1.94.13-.36.27-.72.41-1.08.08-.17.15-.35.22-.53v0c.63-1.39,1.26-2.76,2-4.09a35.59,35.59,0,0,1,2.4-3.79l.21-.29c.2-.24.39-.48.6-.72.49-.58,1-1.13,1.55-1.67s1-.93,1.52-1.36h0a.53.53,0,0,1,.11-.09l.14-.1a.73.73,0,0,0,.16-.14l-.06.08c.27-.19.54-.39.82-.57a18.16,18.16,0,0,1,1.76-1l.76-.37c.2-.06.39-.14.58-.21a19.87,19.87,0,0,1,2.13-.61l1-.19.14,0,.3,0c.68-.06,1.37-.08,2.05-.08h61.23C254.47,402.4,262.36,402.53,270.23,402.4ZM245.85,201.58l3.69,6.07v38.07l-15-9.93-33.65-22.22-7.69-5.08a3.91,3.91,0,0,0-3.89-.06c0-.27,0-.54,0-.81l11-18q9.18-15.11,18.38-30.2l.78-1.29,8.07,13.26Zm133.49,91.88c0-.2-.06-.63,0,0Zm2.74,7.34v0Zm22.13-8.9c0,.17,0,.27,0,0Zm-3.94-47a.51.51,0,0,1,.1-.12ZM404.35,231c-.05.68-.1,1.35-.17,2,0,.27-.06.55-.09.82v0s0,0,0,0,0,.27,0,.4,0,.2,0,.16,0,.2,0,.24a36.36,36.36,0,0,1-1,4.6c-.21.68-.43,1.35-.69,2,0,0,0,.1-.06.18a.53.53,0,0,0-.06.13c-.2.41-.39.82-.6,1.22a17.71,17.71,0,0,1-1.07,1.77c-.07.12-.16.23-.24.35l-.73.83c-.3.32-.62.62-.95.91l-.25.21-.07.05a8,8,0,0,1-2.05,1.22c.27-.05.63-.28,0-.08l-.63.22c-.44.13-.88.25-1.33.34l-.61.11h0c-.6,0-1.2.08-1.8.09s-1,0-1.56-.07H390l-.14,0a21.39,21.39,0,0,1-2.35-.62l.06.05a.87.87,0,0,0-.14-.08,1,1,0,0,1-.24-.1l-.1,0c-.35-.17-.69-.35-1-.55s-.54-.37-.82-.54l-.35-.3a14.93,14.93,0,0,1-1.29-1.35s0,.05,0,.06l-.21-.3,0,0c-.14-.15-.13-.16-.07-.11l-.05-.06c-.23-.34-.46-.68-.67-1-.37-.62-.71-1.27-1-1.93,0-.1-.08-.17-.1-.22l0-.09c-.15-.39-.3-.79-.44-1.19a32.58,32.58,0,0,1-1.17-4.57c-.07-.35-.13-.7-.19-1.05l0-.22a9.75,9.75,0,0,0-.26-2.44,59.81,59.81,0,0,1-.11-7.69h5.2c5,0,10,.14,15,0h.7l4.27,0A61.64,61.64,0,0,1,404.35,231Z"/></g></g></svg>