<svg xmlns="http://www.w3.org/2000/svg" viewBox="0 0 560.75 556.67"><defs><style>.cls-1{fill:#fff;}</style></defs><title>ICONOS HOME</title><g id="ICONOS"><g id="TIERRAS"><path class="cls-1" d="M344.25,395a142.69,142.69,0,0,0-18.84-7.92V306l14.45-14.45,2.21-2.21a3.87,3.87,0,0,0-5.47-5.48l-11.19,11.2v-1.31c0-4.37.13-8.77,0-13.15v-.18a3.87,3.87,0,0,0-7.74,0V319l-9-9-2.21-2.22a3.87,3.87,0,0,0-5.48,5.47l15.59,15.59,1.08,1.08v45c0,3.25-.07,6.52-.06,9.79a136.93,136.93,0,0,0-13.6-3,141.35,141.35,0,0,0-41.83-.83,142.8,142.8,0,0,0-31,7.65V350.18a66.67,66.67,0,0,0,13.91-2.06,56.16,56.16,0,0,0,17.31-7.73,53.35,53.35,0,0,0,16.06-17.26c5.28-9.06,7.91-19.32,9.1-29.66,1.56-13.62.63-27.65-1.71-41.13a142.27,142.27,0,0,0-10.84-35,125.72,125.72,0,0,0-15.91-25.88,94.73,94.73,0,0,0-16.9-16.64c-4.3-3.25-9.41-7.67-15.06-8-3.14-.17-6.51,1.73-9.23,3.11-7.83,4-14.58,10.16-20.41,16.65a120.79,120.79,0,0,0-16.49,23.63,139,139,0,0,0-12.42,32.75,155.81,155.81,0,0,0-4.29,41.22c.34,11.36,2.25,22.69,6.84,33.14a53.73,53.73,0,0,0,14.33,19.45,55.56,55.56,0,0,0,18,10.07A64.92,64.92,0,0,0,219,350c1.48.12,3,.2,4.45.21v24.14c0,5.76-.11,11.54,0,17.3-.8.35-1.61.69-2.41,1.06A139.67,139.67,0,0,0,184.84,417q-2,1.88-4,3.84a3.87,3.87,0,1,0,5.47,5.47q3.84-3.84,8-7.37,2.07-1.77,4.21-3.46l.41-.32.32-.25.29-.21.41-.32c.74-.56,1.49-1.11,2.24-1.66a136.19,136.19,0,0,1,17.88-10.94q2.35-1.2,4.74-2.31l2.16-1,1.09-.47.62-.27c-.7.31,0,0,.19-.07q4.74-2,9.61-3.57a136.37,136.37,0,0,1,19.8-4.91l2.47-.4,1.16-.17.62-.08c1.71-.22,3.42-.42,5.13-.58q5.06-.47,10.14-.55A138.72,138.72,0,0,1,298,388.58h0l.25,0,.18,0,1.16.17c.88.13,1.75.27,2.63.42q2.55.43,5.09,1,5,1.05,9.9,2.46t9.73,3.21q2.38.88,4.71,1.85l.33.14.31.13,1.08.47,2.48,1.12a136.32,136.32,0,0,1,18.19,10.21q2.16,1.44,4.27,3c.71.51,1.41,1,2.1,1.55l.93.71.09.07.69.54q4.23,3.35,8.18,7,2,1.83,3.87,3.72a3.87,3.87,0,1,0,5.47-5.47A141.23,141.23,0,0,0,344.25,395Zm-121.1-219-.16.06A.76.76,0,0,0,223.15,176.08ZM216.24,342l-.81-.12-1.79-.31c-1.26-.24-2.51-.51-3.76-.83s-2.6-.71-3.88-1.13c-.68-.23-1.36-.47-2-.72l-1-.38-.69-.3a63.66,63.66,0,0,1-7.79-4.21c-.68-.45-1.36-.93-2-1.42l-.36-.27-1-.81a48.56,48.56,0,0,1-3.78-3.53c-.64-.66-1.25-1.34-1.85-2-.29-.35-.58-.69-.86-1-.14-.16-.27-.33-.4-.49l0,0v0a58.15,58.15,0,0,1-3.3-4.94,56.5,56.5,0,0,1-2.87-5.58c-.12-.25-.23-.51-.34-.76v0c-.22-.55-.44-1.1-.65-1.66-.42-1.11-.81-2.23-1.17-3.35-.75-2.37-1.38-4.78-1.9-7.21-.28-1.33-.53-2.66-.75-4l-.3-2v-.09l0-.14c-.05-.43-.11-.86-.15-1.28a127.16,127.16,0,0,1-.57-19.51q.21-5.21.75-10.4c.08-.74.17-1.49.26-2.23.05-.43.1-.87.16-1.3l0-.18c0-.13.06-.39.06-.44.23-1.62.48-3.24.76-4.85a142.86,142.86,0,0,1,4.3-17.89q1.29-4.14,2.83-8.21c.49-1.28,1-2.54,1.53-3.81,0-.09.08-.2.12-.29l.42-1c.26-.6.53-1.19.8-1.79a126.18,126.18,0,0,1,7.26-13.63c1.22-2,2.51-4,3.85-5.88.65-.94,1.32-1.87,2-2.79.32-.43.65-.85,1-1.28h0l.6-.77A99.51,99.51,0,0,1,207,188c1.29-1.28,2.63-2.53,4-3.73.62-.55,1.25-1.08,1.89-1.6l.93-.75.12-.1.21-.16.17-.13-.06.05a54.11,54.11,0,0,1,6.93-4.51c.53-.28,1.06-.55,1.6-.8l.64-.29.05,0a20.73,20.73,0,0,1,2.7-.87l.16,0,.27.05a22.74,22.74,0,0,1,2.65.86l.7.32c.54.26,1.07.53,1.6.81,1.15.62,2.26,1.29,3.36,2s2.37,1.62,3.52,2.49l-.07-.06.2.15,0,0,.21.17a.18.18,0,0,1,.07.05l1,.81c.67.54,1.32,1.1,2,1.66a91.74,91.74,0,0,1,8,8q2.08,2.32,4,4.77c.17.23.35.45.53.68h0l1,1.38c.68.93,1.35,1.86,2,2.8A120.3,120.3,0,0,1,265,214.46c1.24,2.33,2.41,4.71,3.5,7.11.27.59.54,1.19.8,1.79l.36.84c.06.12.11.25.16.37l.05.12c.51,1.25,1,2.5,1.49,3.76a137.78,137.78,0,0,1,5.23,17q1.08,4.53,1.88,9.14.42,2.41.75,4.86a1.14,1.14,0,0,1,0,.21,1.41,1.41,0,0,1,0,.22c.06.43.11.87.16,1.3q.17,1.31.3,2.61a155,155,0,0,1,.78,20.67c-.1,3-.31,6-.65,9-.05.37-.09.74-.14,1.12,0,.07,0,.1,0,.14v.09q-.15,1.08-.33,2.16-.33,2-.75,4c-.53,2.47-1.18,4.92-1.95,7.32-.35,1.08-.73,2.16-1.13,3.22-.2.52-.4,1-.61,1.54l0,.05,0,.06c-.11.26-.23.53-.35.79a60.92,60.92,0,0,1-6.17,10.48l-.39.48q-.45.57-.93,1.11c-.59.7-1.21,1.37-1.85,2a46.84,46.84,0,0,1-3.79,3.52l-.93.75c-.14.11-.28.22-.43.32-.66.49-1.34,1-2,1.42-1.33.88-2.71,1.7-4.12,2.45-.65.35-1.32.68-2,1l-1,.46-.53.24-.05,0-.7.29-1.07.41c-.67.25-1.34.49-2,.71a59,59,0,0,1-7.64,1.95l-1.78.31-.81.12c-1,.12-2,.23-3.06.31-.67.05-1.34.08-2,.11V312.07l22.94-25.16,3.42-3.75a3.87,3.87,0,0,0-5.48-5.48l-20.88,22.91V273.72l14.45-14.45,2.22-2.22a3.87,3.87,0,0,0-5.48-5.47l-11.19,11.19V252.62c0-6.5.16-13,0-19.52v-.27a3.87,3.87,0,0,0-7.74,0v29.94l-9-9-2.22-2.22a3.87,3.87,0,0,0-5.47,5.47l15.58,15.58,1.08,1.09v26.87L206,281.43l-3.42-3.75a3.9,3.9,0,0,0-5.47,0,4,4,0,0,0,0,5.48l24.07,26.4,2.28,2.51v30.44l-1.45,0C220.09,342.41,218.16,342.24,216.24,342Zm46.25,46.57Zm98.82,26.36Z"/><path class="cls-1" d="M360.56,149.23l10-10,1.43-1.43a3.87,3.87,0,0,0-5.47-5.47l-10,10-1.42,1.43a3.87,3.87,0,1,0,5.47,5.47Z"/><path class="cls-1" d="M368.87,167.55a3.87,3.87,0,0,0,0,7.74h16.19a3.87,3.87,0,1,0,0-7.74H368.87Z"/><path class="cls-1" d="M293.53,175.29h16.2a3.87,3.87,0,1,0,0-7.74h-16.2a3.87,3.87,0,1,0,0,7.74Z"/><path class="cls-1" d="M339.31,145.88a3.93,3.93,0,0,0,3.87-3.87V125.82a3.87,3.87,0,0,0-7.74,0V142A3.91,3.91,0,0,0,339.31,145.88Z"/><path class="cls-1" d="M335.44,201.15v16.2a3.87,3.87,0,0,0,7.74,0v-16.2a3.87,3.87,0,0,0-7.74,0Z"/><path class="cls-1" d="M314.52,147.8l1.42,1.43a3.87,3.87,0,1,0,5.48-5.47l-10-10L310,132.31a3.87,3.87,0,0,0-5.48,5.47Z"/><path class="cls-1" d="M315.94,192.4l-10,10-1.43,1.43a3.87,3.87,0,0,0,5.48,5.47l10-10,1.43-1.43a3.87,3.87,0,1,0-5.48-5.47Z"/><path class="cls-1" d="M360.56,192.4a3.87,3.87,0,1,0-5.47,5.47l10,10,1.43,1.43a3.87,3.87,0,0,0,5.47-5.47l-10-10Z"/><path class="cls-1" d="M396.15,303.08c-1.15-13.26-5.66-27.06-16.36-35.69a37.1,37.1,0,0,0-14.69-7.49A48.49,48.49,0,0,0,360.47,245a37.66,37.66,0,0,0-11-13c-9.7-7.32-22.48-8.91-34.24-7.33-8.14,1.09-16.05,4.12-20.94,11a3.89,3.89,0,0,0,1.39,5.3,4,4,0,0,0,5.29-1.39c.09-.13.37-.47.38-.5.21-.24.42-.49.65-.73a21.11,21.11,0,0,1,1.62-1.51l.12-.1.17-.12c.33-.22.66-.45,1-.66a21.81,21.81,0,0,1,1.94-1.09l1.05-.49.42-.16c.71-.27,1.44-.52,2.17-.74a39.81,39.81,0,0,1,4.69-1.08l1.06-.17h0l.35,0c.83-.1,1.65-.18,2.48-.24,1.45-.11,2.92-.17,4.38-.17s2.79.06,4.18.18c.6,0,1.2.12,1.8.19l.4.06,1.05.17a39.72,39.72,0,0,1,7.33,2.06c.22.09,1.16.51.26.1l.77.34c.55.25,1.09.52,1.63.81a31.41,31.41,0,0,1,3.2,1.91c.37.25.72.52,1.08.78-.08-.06,0,0,.16.11l.1.07-.08-.06.16.13c.29.23.57.46.84.7a33.43,33.43,0,0,1,2.57,2.48c.37.4.74.82,1.09,1.24.19.22.36.45.55.67l.22.3c.72,1,1.39,2,2,3.07.71,1.22,1.28,2.5,1.9,3.76h0l.18.44.37,1c.25.67.47,1.34.69,2,.46,1.51.85,3,1.16,4.6.15.75.29,1.51.4,2.27l.09.55a.34.34,0,0,0,0,.09l.15,1.35a4,4,0,0,0,3.87,3.87c.27,0,.6.12.28.08a26.58,26.58,0,0,1,2.6.63c.65.19,1.28.4,1.91.63l1,.37.4.18a34.5,34.5,0,0,1,4.83,2.68c.39.27.78.54,1.16.82.2.15.4.32.62.46l-.17-.11.21.16a32.13,32.13,0,0,1,2.53,2.28,35.5,35.5,0,0,1,2.48,2.73l.27.34.41.55c.41.56.81,1.14,1.18,1.72a41.11,41.11,0,0,1,2.16,3.76c.33.67.65,1.34,1,2l.09.19a.31.31,0,0,1,0,.07c.18.45.36.9.53,1.35a56.39,56.39,0,0,1,2.74,10.39c.09.54.17,1.08.25,1.62a.65.65,0,0,0,0,.11l0-.14c0,.06,0,.12,0,.18a1.43,1.43,0,0,0,0,.21l0,.28c.14,1.16.25,2.33.34,3.5.16,2.24.24,4.49.22,6.74a49.64,49.64,0,0,1-.31,5.45l-.06.46v0c-.07.4-.13.81-.2,1.21-.15.83-.32,1.65-.52,2.46a35.44,35.44,0,0,1-1.36,4.43,7.34,7.34,0,0,1-.37,1l-.11.22c-.32.7-.66,1.4-1,2.08a32.68,32.68,0,0,1-2.13,3.43c0,.06-.58.74-.64.86l-.07.1q-.69.82-1.41,1.62a36.11,36.11,0,0,1-2.74,2.65c-.28.24-.62.62-1,.9,0,0,0,0-.18.07l-.41.31-.93.66a43.33,43.33,0,0,1-6.46,3.67l-.82.37-.23.1c-.54.22-1.08.44-1.62.64-1.13.43-2.27.81-3.42,1.17-2.18.66-4.39,1.2-6.62,1.64-1.08.21-2.17.4-3.26.56l-.62.09-1.43.17c-1.73.19-3.47.33-5.21.4-2,.09-4,0-6,0h-.27a3.89,3.89,0,0,0-3.87,3.87,4,4,0,0,0,3.87,3.87,72.73,72.73,0,0,0,16.14-1c10.31-1.62,20.59-5.44,28.4-12.55A38,38,0,0,0,394,326.42C396.61,319,396.83,310.86,396.15,303.08Zm-88.1-68.73Zm49.57,27.39c0-.18,0-.2,0,0Zm24.57,70.5-.15.19C382.18,332.24,382.53,331.83,382.19,332.24Z"/><path class="cls-1" d="M283,344.88c-.52-.18-1-.38-1.55-.58l-.73-.29-.69-.31-.77-.35-.63-.32a3.87,3.87,0,0,0-3.91,6.68,51,51,0,0,0,9.83,3.8,55.34,55.34,0,0,0,22.12,1.91c2-.26,4-1.6,3.87-3.87-.08-1.88-1.72-4.15-3.87-3.87a49.23,49.23,0,0,1-11.25.14,44.81,44.81,0,0,1-4.48-.71c-1.46-.3-2.9-.66-4.33-1.07C285.38,345.7,284.18,345.31,283,344.88Z"/><path class="cls-1" d="M320.17,183A22.65,22.65,0,0,0,344,193.27c10.26-2.05,17.59-11.54,17.68-21.85a22.67,22.67,0,0,0-14.87-21.06A22.35,22.35,0,0,0,320.17,183Zm4.63-13.51c0,.2-.12.65,0,0Zm-.06.61.06-.63c.07-.43.15-.85.26-1.28.2-.84.49-1.64.77-2.46-.27.79.14-.3.26-.54.21-.43.44-.85.68-1.26s.45-.71.69-1.06l.12-.18a3.26,3.26,0,0,1,.23-.29,20,20,0,0,1,1.85-1.94l.77-.65.7-.48a18,18,0,0,1,2.35-1.31l.34-.14.07,0c.41-.14.81-.29,1.22-.41s.84-.23,1.26-.32L337,157c.15,0,1.18-.1.28-.05.84,0,1.67-.12,2.52-.1.45,0,.89.07,1.34.08h0l.74.13a22.39,22.39,0,0,1,2.8.8l.13,0,.71.33c.42.21.84.44,1.25.69s.8.51,1.2.78l.12.07.46.39a18.37,18.37,0,0,1,2.11,2.12l.26.32.19.28c.27.4.53.79.77,1.2s.47.83.67,1.26c.1.19.18.39.27.57l0,.13a24.92,24.92,0,0,1,.82,3c0,.16.06.33.09.49s0,.07,0,.1a1.21,1.21,0,0,0,0,.18c0,.57.07,1.12.07,1.69s0,.9,0,1.35l0,.32c0,.08,0,.22,0,.3h0v0a22.26,22.26,0,0,1-.65,2.68l-.21.61s0,.12-.08.21a3.27,3.27,0,0,1-.14.34c-.09.2-.18.39-.28.58a25.54,25.54,0,0,1-1.39,2.3l-.12.18-.24.29c-.27.32-.55.63-.84.94a19.91,19.91,0,0,1-1.67,1.52c-.11.06-.57.4-.71.49-.35.23-.71.45-1.08.65s-.75.41-1.13.59l-.29.13-.41.16a23.6,23.6,0,0,1-2.49.71l-.65.12-.36,0-.25,0L340,186a21.84,21.84,0,0,1-2.43-.08c.14,0-.67-.09-.87-.13-.48-.09-.95-.21-1.42-.34s-.82-.26-1.23-.4l-.16-.06-.25-.09h0a21.38,21.38,0,0,1-2.48-1.37c-.14-.09-.62-.44-.71-.49l-.64-.54a18.81,18.81,0,0,1-1.87-1.92l-.24-.29a1.4,1.4,0,0,1-.12-.18c-.23-.35-.48-.69-.7-1.05s-.43-.74-.62-1.11c-.1-.19-.19-.38-.28-.57l-.23-.53-.06-.17-.21-.61c-.13-.41-.25-.83-.36-1.25s-.17-.74-.24-1.12c0-.1,0-.2,0-.29s-.06-.57-.07-.65A20.27,20.27,0,0,1,324.74,170.07Z"/></g></g></svg>