<?xml version="1.0" encoding="utf-8"?>
<!-- Generator: Adobe Illustrator 19.0.0, SVG Export Plug-In . SVG Version: 6.00 Build 0)  -->
<svg version="1.1" fill="#F88F39" id="Capa_1" xmlns="http://www.w3.org/2000/svg" xmlns:xlink="http://www.w3.org/1999/xlink" x="0px" y="0px"
	 viewBox="0 0 250 300" style="enable-background:new 0 0 250 300;" xml:space="preserve">
<g id="XMLID_20_">
	<path id="XMLID_18_" d="M43.6,100.3c1.1,0,2.2-0.5,2.9-1.2c0.8-0.7,1.2-1.8,1.2-2.9c0-1.1-0.5-2.2-1.2-2.9
		c-0.8-0.8-1.8-1.2-2.9-1.2c-1.1,0-2.2,0.5-2.9,1.2c-0.8,0.8-1.2,1.8-1.2,2.9c0,1.1,0.5,2.2,1.2,2.9
		C41.4,99.9,42.5,100.3,43.6,100.3z"/>
	<path id="XMLID_17_" d="M153.9,95.7c-1.1,0-2.2,0.5-2.9,1.2c-0.8,0.8-1.2,1.8-1.2,2.9c0,1.1,0.5,2.2,1.2,2.9
		c0.8,0.8,1.8,1.2,2.9,1.2c1.1,0,2.2-0.5,2.9-1.2c0.8-0.8,1.2-1.8,1.2-2.9c0-1.1-0.5-2.2-1.2-2.9C156.1,96.1,155,95.7,153.9,95.7z"
		/>
	<path id="XMLID_16_" d="M44.5,212.5c-1.6-1.6-4.2-1.6-5.8,0l-1.8,1.8c-1.6,1.6-1.6,4.2,0,5.8c0.8,0.8,1.9,1.2,2.9,1.2
		c1.1,0,2.1-0.4,2.9-1.2l1.8-1.8C46.1,216.7,46.1,214.1,44.5,212.5z"/>
	<path id="XMLID_15_" d="M85.2,212.1c-1.6-1.6-4.2-1.6-5.8,0c-1.6,1.6-1.6,4.2,0,5.8l1.9,1.9c0.8,0.8,1.9,1.2,2.9,1.2
		s2.1-0.4,2.9-1.2c1.6-1.6,1.6-4.2,0-5.8L85.2,212.1z"/>
	<path id="XMLID_14_" d="M47.3,236l-1.1,1.1c-1.6,1.6-1.6,4.2,0,5.8c0.8,0.8,1.9,1.2,2.9,1.2c1.1,0,2.1-0.4,2.9-1.2
		l1.1-1.1c1.6-1.6,1.6-4.2,0-5.8C51.6,234.4,48.9,234.4,47.3,236z"/>
	<path id="XMLID_13_" d="M106,235.1c-1.6-1.6-4.2-1.6-5.8,0c-1.6,1.6-1.6,4.2,0,5.8l1.9,1.9c0.8,0.8,1.9,1.2,2.9,1.2
		s2.1-0.4,2.9-1.2c1.6-1.6,1.6-4.2,0-5.8L106,235.1z"/>
	<path id="XMLID_23_" d="M226.7,189.4H208l3.6-1.7c1.2-0.6,2-1.7,2.2-3c0.2-1.3-0.2-2.7-1.2-3.6l-15.7-15.7
		c-1-1-2.3-1.4-3.6-1.2s-2.4,1-3,2.2l-6.6,13.4l-10.2,0.4c-6.1,0.2-11.5,3.8-14.1,9.4c-2.9,6.2-1.6,13.7,3.2,18.5l3.6,3.6l-5.9-0.2
		l-5-10.1c-0.6-1.2-1.7-2-3-2.2c-1.3-0.2-2.7,0.2-3.6,1.2l-12.9,12.9c-1,1-1.4,2.3-1.2,3.6c0.2,1.3,1,2.4,2.2,3l10.1,5l0.5,11.3
		c0,1.1,0.2,2.2,0.5,3.2c-11.2-6-18.9-17.8-18.9-31.4v-14.3c0-2.3-1.9-4.1-4.1-4.1h-16.9c1.5-2.5,2.4-5.5,2.4-8.7
		c0-5-2.2-9.6-5.7-12.7c0.3-0.2,0.6-0.5,0.9-0.8c3.1-3.1,4.8-7.3,4.8-11.7v-12.4c0-4.4-1.7-8.5-4.8-11.7l-21.5-21.5l49.8-28.8v51.4
		c0,6.7,5.5,12.2,12.2,12.2c1.7,0,3.4-0.4,4.9-1l1.6,1.6l-9,9h-16.9c-2.3,0-4.1,1.9-4.1,4.1c0,12.6,10.2,22.8,22.8,22.8
		c12.6,0,22.8-10.2,22.8-22.8c0-6.1-2.4-11.8-6.7-16.1l0,0l0,0l-4.4-4.3c0.8-1.7,1.3-3.5,1.3-5.4v-16.3c0-2.3-1.9-4.1-4.1-4.1
		c-2.3,0-4.1,1.9-4.1,4.1v16.2c0,2.2-1.7,3.9-3.9,3.9c-2.1,0-3.9-1.7-3.9-3.9V76.5l7.2-4.2c0.2-0.1,0.3-0.2,0.5-0.3v11.2
		c0,2.3,1.9,4.1,4.1,4.1c2.3,0,4.1-1.9,4.1-4.1V56.7c0-0.2,0-0.3,0-0.5c-0.1-2.7-0.9-5.5-2.3-8c-2.4-4.1-6.1-7-10.7-8.2
		c-4.6-1.2-9.3-0.6-13.4,1.7L58.1,84.3l-4-4c-3.1-3.1-7.3-4.8-11.7-4.8H35c-9.1,0-16.5,7.4-16.5,16.5v63.7c0,5,2.2,9.5,5.7,12.5
		c-3.5,3.1-5.7,7.6-5.7,12.7c0,3.3,1,6.3,2.6,9c-1.5,0.6-2.6,2.1-2.6,3.8c0,2.3,1.9,4.1,4.1,4.1h97.9v10.2c0,23.6,18.7,42.9,42,43.9
		c0.4,0,0.7,0,1.1,0c0,0,0.1,0,0.1,0c0.2,0,0.5,0,0.8,0c24.2,0,43.9-19.7,43.9-43.9v-10.2h18.2c2.3,0,4.1-1.9,4.1-4.1
		C230.9,191.2,229,189.4,226.7,189.4z M145,173c-6.6,0-12.1-4.4-13.9-10.3H145c1.1,0,2.2-0.5,2.9-1.2l9.8-9.8
		c1.1,2.1,1.7,4.4,1.7,6.9C159.5,166.5,153,173,145,173z M135.8,49c2.2-1.2,4.7-1.6,7.1-0.9c2.4,0.7,4.4,2.2,5.7,4.4
		c2.6,4.5,1,10.2-3.4,12.8l-67.3,38.9L64.2,90.4L135.8,49z M35,163.8c-4.5,0-8.2-3.7-8.2-8.2V91.9c0-4.5,3.7-8.2,8.2-8.2h7.4
		c2.2,0,4.2,0.9,5.8,2.4l26,26l0,0l25.3,25.3c1.4,1.4,2.2,3.2,2.4,5.1h-50c-2.2,0-4.1-1.8-4.1-4.1v-25.6c0-2.3-1.9-4.1-4.1-4.1
		s-4.1,1.9-4.1,4.1v25.6c0,6.8,5.6,12.4,12.4,12.4h50.1v4.9c0,2.2-0.9,4.2-2.4,5.8c-1.5,1.5-3.6,2.4-5.8,2.4L35,163.8L35,163.8z
		 M35.5,189.4c-4.8,0-8.7-3.9-8.7-8.7c0-4.8,3.9-8.7,8.7-8.7h57.8c4.8,0,8.7,3.9,8.7,8.7c0,4.8-3.9,8.7-8.7,8.7H35.5z M195.2,175.2
		l7.5,7.5l-6.1,3l-4.5-4.5L195.2,175.2z M166.9,193c1.3-2.7,3.9-4.5,7-4.6l13.2-0.5l2.9,2.9l-0.5,13.2c-0.1,3-1.9,5.7-4.6,7
		c-3.1,1.5-6.7,0.8-9.1-1.6l-2.7-2.7l0,0l-4.6-4.6C166.1,199.8,165.4,196.1,166.9,193z M150.4,210.2l1.7,3.6l-2.9,2.9l-3.6-1.7
		L150.4,210.2z M160.2,242.7c-2.7-1.3-4.5-3.9-4.6-7l-0.5-13.2l2.9-2.9l13.2,0.5c3,0.1,5.7,1.9,7,4.6c1.5,3.1,0.8,6.7-1.6,9.1
		l-7.3,7.3c-1.5,1.5-3.4,2.3-5.4,2.4c-0.3,0-0.7,0-1,0C162,243.4,161.1,243.1,160.2,242.7z M200.2,207.9c0,12.3-6.3,23.1-15.8,29.6
		c3.2-4.7,3.8-10.9,1.3-16.2c-0.2-0.5-0.5-1-0.8-1.5c1.2-0.2,2.4-0.7,3.5-1.2c5.6-2.6,9.1-8,9.4-14.1l0.4-10.2l2-1
		c0,0.1,0,0.2,0,0.3V207.9L200.2,207.9z"/>
	<path id="XMLID_2_" d="M35.2,176.6c-1.1,0-2.2,0.5-2.9,1.2c-0.8,0.7-1.2,1.8-1.2,2.9s0.5,2.2,1.2,2.9
		c0.8,0.8,1.8,1.2,2.9,1.2c1.1,0,2.2-0.5,2.9-1.2c0.8-0.8,1.2-1.8,1.2-2.9s-0.5-2.2-1.2-2.9C37.4,177,36.4,176.6,35.2,176.6z"/>
	<path id="XMLID_1_" d="M96.9,180.7c0-1.1-0.5-2.2-1.2-2.9c-0.7-0.8-1.8-1.2-2.9-1.2c-1.1,0-2.2,0.5-2.9,1.2
		c-0.8,0.8-1.2,1.8-1.2,2.9s0.5,2.2,1.2,2.9c0.8,0.8,1.8,1.2,2.9,1.2c1.1,0,2.2-0.5,2.9-1.2C96.4,182.9,96.9,181.8,96.9,180.7z"/>
</g>
</svg>
