<?xml version="1.0" encoding="utf-8"?>
<!-- Generator: Adobe Illustrator 18.0.0, SVG Export Plug-In . SVG Version: 6.00 Build 0)  -->
<!DOCTYPE svg PUBLIC "-//W3C//DTD SVG 1.1//EN" "http://www.w3.org/Graphics/SVG/1.1/DTD/svg11.dtd">
<svg version="1.1" id="Layer_1" xmlns="http://www.w3.org/2000/svg" xmlns:xlink="http://www.w3.org/1999/xlink" x="0px" y="0px"
	 viewBox="0 0 347.3 250.5" enable-background="new 0 0 347.3 250.5" xml:space="preserve">
<g>
	<defs>
		<rect id="SVGID_1_" width="347.3" height="250.5"/>
	</defs>
	<clipPath id="SVGID_2_">
		<use xlink:href="#SVGID_1_"  overflow="visible"/>
	</clipPath>
	<path clip-path="url(#SVGID_2_)" fill="#000000" d="M53,24c40.3,0,80.6,0,120.8,0c20,0,39.9,0,59.9,0c19.6,0,39.4-0.7,59.1,0.1
		c10.7,0.5,18.7,5.7,23.8,14.4c0.7,1.2,1.3,2.4,1.9,3.7c0.6,1.2,0.1,0.1,0-0.1c0.3,0.7,0.6,1.5,0.9,2.3c1.1,3.1,2,6.4,2.6,9.7
		c0.2,0.8,0.3,1.7,0.4,2.5c0-0.3-0.2-1.4,0,0c0.2,1.5,0.3,3.1,0.4,4.6c0.3,4.4,0.2,8.8,0.2,13.2c0,19.4,0.2,38.9,0,58.3
		c0,3-0.2,6-0.5,9c-0.1,1.4,0,0.1,0.1-0.2c-0.1,0.8-0.2,1.6-0.4,2.4c-0.3,1.6-0.6,3.1-1,4.6c-0.4,1.5-0.8,3-1.3,4.5
		c0,0.1-0.7,1.8-0.2,0.7c0.5-1.3-0.4,0.9-0.5,1.1c-0.6,1.2-1.2,2.3-1.9,3.4c-0.4,0.6-0.8,1.2-1.2,1.8c0.7-1,0.5-0.6-0.2,0.1
		c-0.4,0.4-3.4,3-1.6,1.7c-1,0.8-2.2,1.4-3.3,2c-1.7,0.9,1.5-0.5-0.3,0.1c-0.6,0.2-1.1,0.4-1.7,0.5c-2.7,0.7-1.4,0.5-3.8,0.7
		c-2.4,0.1-4.9,0.1-7.4,0.1h-17.6h-53.5H101.8H37.4h-8.8c-15.4,0-15.5,24,0,24h64.7h127.4h56.7c15.3,0,34.5,2.6,47.8-6.1
		c11.7-7.6,18-20.6,20.2-34.1c2.9-17.7,1.5-36.1,1.5-54c0-30.8,2.6-66.8-26.3-86.5c-14.5-9.9-32.2-8.5-49-8.6
		c-21,0-41.9-0.1-62.9-0.1c-41.6,0-83.2,0-124.8,0C73.6,0,63.3,0,53,0C37.5,0,37.5,24,53,24"/>
	<path clip-path="url(#SVGID_2_)" fill="#000000" d="M96.9,230.2c-22.3-17.7-44.6-35.3-66.9-53c-3.2-2.5-6.4-5.1-9.6-7.6v17
		c22.3-19.3,44.6-38.5,66.9-57.8c3.2-2.7,6.3-5.5,9.5-8.2c4.9-4.2,4.3-12.6,0-17c-4.9-4.9-12.1-4.2-17,0
		c-22.3,19.3-44.6,38.5-66.9,57.8c-3.2,2.7-6.3,5.5-9.5,8.2c-4.5,3.9-4.8,13.1,0,17c22.3,17.7,44.6,35.3,66.9,53l9.6,7.6
		c5.1,4,12,5,17,0C101.1,243,102,234.2,96.9,230.2"/>
</g>
</svg>
