<?xml version="1.0" encoding="utf-8"?>
<!-- Generator: Adobe Illustrator 18.0.0, SVG Export Plug-In . SVG Version: 6.00 Build 0)  -->
<!DOCTYPE svg PUBLIC "-//W3C//DTD SVG 1.1//EN" "http://www.w3.org/Graphics/SVG/1.1/DTD/svg11.dtd">
<svg version="1.1" id="Layer_1" xmlns="http://www.w3.org/2000/svg" xmlns:xlink="http://www.w3.org/1999/xlink" x="0px" y="0px"
	 viewBox="0 0 304.4 311.5" enable-background="new 0 0 304.4 311.5" xml:space="preserve">
<g>
	<defs>
		<rect id="SVGID_1_" width="304.4" height="311.5"/>
	</defs>
	<clipPath id="SVGID_2_">
		<use xlink:href="#SVGID_1_"  overflow="visible"/>
	</clipPath>
	<path clip-path="url(#SVGID_2_)" fill="#000000" d="M84.3,190.1c6.4,9.9,13.2,19.6,21,28.4c3.8,4.3,9.5,12.8,16.2,10.9
		c4.2-1.2,7.6-5.7,10.4-8.8c6.6-7.1,12.3-14.9,17.8-22.8c15.5-22.5,28.4-47.2,37-73.1c8.2-24.8,13.7-54.4,3.7-79.4
		c-22.6-56.6-108.8-61.1-138-7.9c-12.8,23.3-9.9,51.8-3.2,76.5C56.5,140.9,69.2,166.6,84.3,190.1 M60.3,48.4
		c6.4-15.2,19.7-26,34.9-31.8c14.9-5.7,28.6-6.6,43.8-1.7c14.9,4.7,28.7,13.5,36.7,27.2c12,20.6,8.6,46.6,2.7,68.6
		c-6.8,25.1-18.4,48.8-32.3,70.8c-5.8,9.2-12,18.2-19,26.4c-2.3,2.7-4.7,5.4-7.3,7.9c-0.1,0.1-0.1,0.1-0.2,0.2c-2-1.9-4-3.9-5.8-6
		c-5.9-6.8-11.2-14.1-16.2-21.6c-14-20.9-25.9-43.7-33.7-67.6C56.5,98.3,50.8,71.2,60.3,48.4"/>
	<path clip-path="url(#SVGID_2_)" fill="#000000" d="M130.6,122.2c21.5-3.8,36.7-23,37.4-44.3c0-0.2,0-0.5,0-0.8c0-0.3,0-0.5,0-0.7
		c-0.6-19-12.3-35.8-30.3-42.4c-18-6.6-39.1-0.8-51.1,14.1c-12,14.9-13.8,36.1-3.9,52.6C92.6,117.1,111.8,125.6,130.6,122.2
		 M93.1,59.7c7.2-12,21.8-18.7,35.7-15.8c15.9,3.3,27,17.2,27.3,33.3c-0.2,14-8.8,27-22.1,31.8c-13.5,4.9-28.8,0.8-38-10.2
		C86.9,87.8,85.8,71.8,93.1,59.7"/>
	<path clip-path="url(#SVGID_2_)" fill="#000000" d="M304.1,303.9c-9.2-26.6-18.4-53.2-27.7-79.7c-6.5-18.8-13-37.6-19.6-56.4
		c-3.4-9.8-6.3-20-10.3-29.5c-2.4-5.8-12.2-7.7-17.5-9.8c-8-3.2-16-6.3-24-9.5c-3.5-1.4-7.9,2.2-7.6,5.8c1.7,22,3.5,44,5.2,66.1
		c-0.7,0.4-1.4,0.8-2,1.1c-9.5,5-19,9.9-28.5,14.9l-22.3,11.7c-1.8,1-3,3.1-3,5.2v70.9c-5.1-1.5-10.2-3-15.3-4.6
		c-12.6-3.8-25.3-7.5-37.9-11.3c-0.1,0-0.2-0.1-0.4-0.1V218c0-1.9-1.1-4.4-3-5.2c-12.7-5.6-25.3-11.2-38-16.7
		c1.5-4.2,3-8.4,4.6-12.6c2.1-5.9,4.3-11.8,6.4-17.7c2.6-7.3-8.9-10.4-11.6-3.2c-15,41.2-30,82.4-45,123.7
		c-2.1,5.9-4.3,11.8-6.4,17.7c-1.6,4.4,3.2,8.5,7.4,7.4c21.5-6,43-11.9,64.5-17.9l13.5-3.8c0.4-0.1,1-0.2,1.6-0.3
		c4,1.6,8.5,2.5,12.6,3.7c6.7,2,13.3,4,20,5.9c10.2,3,20.5,6.8,30.9,9.2c2.8,0.7,4.9-0.3,7.5-1.1c5.3-1.6,10.6-3.3,15.9-4.9
		c12.7-3.9,25.5-7.9,38.2-11.8c1-0.3,2.3-0.5,3.3-0.9c2.6,1.1,6.1,1.5,8.7,2.2c24.1,6.6,48.1,13.1,72.2,19.7
		C300.9,312.5,305.6,308.4,304.1,303.9 M15.7,296.6c10.8-29.8,21.7-59.6,32.5-89.4c11,4.9,22,9.7,33,14.6v56.5
		c-1.5,0.5-3,0.9-4.4,1.3C56.5,285.3,36.1,291,15.7,296.6 M235.9,144c6.2,17.7,12.3,35.4,18.5,53.2c0.5,1.4,1,2.8,1.4,4.2
		c-13.6-3.8-27.1-7.7-40.7-11.5c-0.2-0.1-0.4-0.1-0.6-0.2c-1.2-15-2.4-30-3.5-45.1c-0.3-3.6-0.6-7.2-0.9-10.8L235.9,144z
		 M183.2,286.8c-6.8,2.1-13.7,4.2-20.5,6.3c-1.1,0.4-2.5,0.7-3.9,1v-66.9c14.9-7.8,29.9-15.6,44.8-23.4c1.6,19.8,3.1,39.5,4.6,59.3
		c0.4,5.1,0.8,10.3,1.2,15.4c-2.3,0.7-4.5,1.6-6.7,2.3C196.2,282.8,189.7,284.8,183.2,286.8 M221.5,278.3c-2-25.3-4-50.6-6-75.9
		c15,4.2,30.1,8.5,45.1,12.7c8.3,23.8,16.5,47.6,24.8,71.4c1.2,3.4,2.3,6.8,3.5,10.1c-17.8-4.9-35.6-9.7-53.4-14.6
		C230.8,280.9,226.1,279.6,221.5,278.3"/>
</g>
</svg>
