<?xml version="1.0" encoding="utf-8"?>
<!-- Generator: Adobe Illustrator 19.0.0, SVG Export Plug-In . SVG Version: 6.00 Build 0)  -->
<svg version="1.1" id="Capa_1" xmlns="http://www.w3.org/2000/svg" xmlns:xlink="http://www.w3.org/1999/xlink" x="0px" y="0px"
	 viewBox="0 0 250 300" style="enable-background:new 0 0 250 300;" xml:space="preserve">
<style type="text/css">
	.st0{fill:#49AA42;}
</style>
<path id="XMLID_12_" class="st0" d="M15,232.7c0.7-1.9,1.2-3.8,2.2-5.6c2.9-5,7.2-7.7,13-8.2c0.6-0.1,1.7-0.6,1.8-1.2
	c2.8-9.2,9.2-15.2,17.1-20c6.3-3.8,13.2-6,20.8-6c0-13.7,0-27.3,0-40.7c-3.1-1.1-6.4-1.9-9.3-3.4c-11.3-5.8-17.2-15.1-17.7-27.9
	c-0.2-4.5-0.1-9.1-0.1-13.7c0-3.3,1.7-4.8,4.9-4.8c1.5,0,3,0.2,4.5,0.4c1.5,0.2,2.9,0.6,4.4,0.9c1-1.9,2-3.8,3.1-5.6
	c3-4.8,7-8.8,11.5-12.3c2.2-1.7,4-1.6,6.2,0c5.7,4.2,9.3,8.6,14.4,17.5c3.2-0.4,6.4-0.9,9.6-1.1c2.3-0.2,4.3,1.3,4.3,3.6
	c-0.1,7,0.6,14.3-0.7,21.1c-2.6,12.9-11,20.8-23.8,24.2c-0.7,0.2-1.5,0.3-2.4,0.5c0,10.3,0,20.5,0,31.3c10.6-11,23.2-17.1,38.2-17.6
	s28.1,4.5,39.4,14.8c0-21.9,0-43.5,0-65.3c-7.7-1.1-14.6-4.1-20.4-9.3c-8.1-7.3-12.3-16.4-12.7-27.3c-0.2-5.6-0.1-11.3-0.1-16.9
	c0-3.5,1.7-5.2,5.2-5c3.8,0.3,7.6,1,11.6,1.5c3.9-9.5,10.8-17.1,19.5-23.2c0.9,0,1.7,0,2.6,0c8.6,6.1,15.5,13.7,19.5,23.2
	c4.1-0.5,7.8-1.2,11.6-1.5c3.5-0.3,5.2,1.5,5.2,5c0,5.6,0.1,11.3-0.1,16.9c-0.3,10.9-4.5,20-12.6,27.3c-5.8,5.2-12.7,8.2-20.5,9.3
	c0,5.1,0,10.1,0,15.4c4.4-4.6,9.4-7.3,15.2-8.9c8-2.2,16.2-2.4,24.3-1.2c3.2,0.5,4.3,1.6,4.7,4.9c1,7.5,0.9,14.9-0.9,22.3
	c-2.9,12.7-10.5,21-23.3,23.9c-5.2,1.2-10.7,1.2-16.1,1.7c-1.3,0.1-2.7,0-4.1,0c0,2,0,3.8,0,5.7c0,1.9,0,3.8,0,5.7
	c9.8-1.2,16.1-0.9,23.4,1.9c15.2,5.8,25.6,15.9,28.8,32.4c0.1,0.5,1.1,1.2,1.7,1.3c5.5,0.6,9.7,3.2,12.5,7.9
	c1.1,1.8,1.6,3.9,2.4,5.9c0,6.7,0,13.4,0,20.1c-30.5,0-61,0-91.5,0c-0.5-0.4-1.2-0.6-1.4-1.2c-0.5-1.4-1.3-2.8-1.2-4.3
	c0.1-1.8,1.6-2.8,3.4-3.1c0.6-0.1,1.3-0.1,1.9-0.1c25.8,0,51.6,0,77.4,0c0.9,0,1.8,0,2.9,0c0-2.6-0.2-5,0.1-7.4
	c0.5-5.3-2.8-9.4-9.3-9.4c-43.6,0.2-87.1,0.1-130.6,0.1c-17.9,0-35.8,0-53.6,0c-4.2,0-7.4,2-7.9,5.7c-0.5,3.6-0.1,7.3-0.1,11
	c0.6,0,1.2,0,1.8,0c23.9,0,47.9,0,71.8,0c2.6,0,5.1-0.1,7.7,0c2.1,0.1,3.5,1.1,4.1,3.1c0.6,2-0.2,3.5-1.7,4.6
	c-0.3,0.3-0.6,0.5-1,0.7c-30.5,0-61,0-91.5,0C15,246.1,15,239.4,15,232.7z M78.6,218.8c43.6,0,86.8,0,130.4,0
	c-0.8-2.5-1.4-4.8-2.3-6.8c-6.8-15.8-27-24.4-44.3-19c-3.9,1.3-4.8,1-7.3-2.2c-18.6-24-54.9-23.6-73.1,0.7
	c-2.4,3.1-3.9,6.4-3.6,10.6c0.4,4.8,0.1,9.6,0.1,14.3C78.6,217.1,78.6,217.9,78.6,218.8z M173.6,162.9c0.1,0.2,0.2,0.4,0.3,0.6
	c2.5-0.4,5.1-0.5,7.5-1.1c6.4-1.3,12.1-3.9,15.6-9.8c4.5-7.8,4.8-16.3,4.2-25.1c-4.5,0-8.8-0.3-13.1,0.1c-5.3,0.5-10.4,2.1-14.5,5.6
	c-5.3,4.4-7.3,10.6-8.1,17.1c-0.4,2.8-0.4,5.7-0.5,8.5c4.8-4.1,8.9-8.3,13.1-12.4c1.1-1,2.9-1.8,4.3-1.6c3.5,0.4,4.5,4.6,1.9,7.4
	C180.8,155.9,177.2,159.4,173.6,162.9z M131.9,64.5c0,4.9-0.2,9.7,0.1,14.4c0.2,4.3,1.5,8.4,3.7,12.1c4.7,7.9,11.6,12.6,21.3,14.4
	c-0.4-6.7-0.2-13.1-1.4-19.4C153.4,74.8,142.6,65.4,131.9,64.5z M189.9,64.3c-8.4,1.4-14.8,5.6-19.6,12.3c-6.3,8.8-5.1,18.7-5,28.7
	c9.3-1.7,16.2-6.5,21-14.5C191,82.5,189.8,73.4,189.9,64.3z M160.9,43.6c-5.1,4.5-9.5,9.3-12.3,15.4c-0.7,1.6-0.8,2.6,0.9,3.7
	c1.6,1,3.1,2.3,4.4,3.7c2.5,2.8,4.8,5.8,7.2,8.8c0.2-0.3,0.4-0.6,0.7-1c2.8-4.6,6.3-8.6,10.8-11.7c1.3-0.9,1.3-1.7,0.7-3
	C170.5,53.1,166.1,48.1,160.9,43.6z M69.9,200.6c-11.8-1.4-27.2,10.1-29,18.1c9.7,0,19.3,0,29,0C69.9,212.7,69.9,206.7,69.9,200.6z
	 M51.5,110.5c-2.3,18.6,6,28.9,18.3,31.2C71.9,125.4,65.6,113.4,51.5,110.5z M78.1,142c4.9-0.9,8.4-2.8,11.5-5.5
	c8.1-7,8.1-16.4,7.5-26c-0.5,0.1-1,0.2-1.5,0.3c-8.1,2.3-13.8,7.4-15.9,15.5C78.5,131.1,78.7,136.5,78.1,142z M74.3,93.4
	c-4,3.5-7.4,7.3-9.4,12.1c-0.2,0.4,0.1,1.3,0.5,1.7c3,3,6.1,6,8.9,8.8c2.8-2.7,6-5.8,9.1-9c0.3-0.3,0.4-1.2,0.2-1.7
	C81.6,100.6,78.2,96.9,74.3,93.4z"/>
</svg>
